# xmcd
#
# Track frame offsets:
#	150
#	13477
#	27277
#	42324
#	56637
#	75958
#	92679
#	113043
#	128071
#	147549
#	164597
#	175961
#	192423
#	208945
#	225813
#	240163
#	255646
#	271820
#	285230
#	302307
#
# Disc length: 4301 seconds
#
# Revision: 1
# Processed by: cddbd v1.5.2PL0 Copyright (c) Steve Scherf et al.
# Submitted via: audiograbber 1.83.01
#
DISCID=0710cb14
DTITLE=Various Artist - 2011 September Country Radio Promo Only
DYEAR=2011
DGENRE=Country
TTITLE0=George Strait - Here For A Good Time
TTITLE1=Brett Eldredge - It Ain't Gotta Be Love
TTITLE2=Montgomery Gentry - Where I Come From
TTITLE3=Sawyer Brown - Smokin' Hot Wife
TTITLE4=Robin Meade - Dirty Laundry
TTITLE5=Danny Gokey - Second Hand Heart
TTITLE6=Keith Urban - Long Hot Summer (Venti Mix)
TTITLE7=Craig Morgan - This Ole Boy
TTITLE8=Taylor Swift - Sparks Fly
TTITLE9=Blake Shelton - God Gave Me You
TTITLE10=Tyler Farr - That's What They're Bitin' On
TTITLE11=Alan Jackson - Long Way To Go
TTITLE12=Billy Ray Cyrus - Runway Lights
TTITLE13=Martina McBride - I'm Gonna Love You Through It
TTITLE14=Ashton Shepherd - Where Country Grows
TTITLE15=Steel Magnolia - Without You
TTITLE16=Jeff Bridges - What A Little Bit Of Love Can Do
TTITLE17=Johnny Patton - Save The Jukebox
TTITLE18=David Adam Byrnes - She Only Wanted Flowers
TTITLE19=Jim Quick - Down South
EXTD=
EXTT0=
EXTT1=
EXTT2=
EXTT3=
EXTT4=
EXTT5=
EXTT6=
EXTT7=
EXTT8=
EXTT9=
EXTT10=
EXTT11=
EXTT12=
EXTT13=
EXTT14=
EXTT15=
EXTT16=
EXTT17=
EXTT18=
EXTT19=
PLAYORDER=
